<?xml version="1.0" encoding="UTF-8"?>
<svg width="23.454mm" height="16.39mm" version="1.1" viewBox="0 0 23.454 16.39" xmlns="http://www.w3.org/2000/svg"><g transform="translate(-2.3482e-7 -112.47)"><g transform="matrix(.26458 0 0 .26458 -15.591 -.3315)" fill="#343434" fill-opacity=".6733" vector-effect="non-scaling-stroke" style="paint-order:markers stroke fill" aria-label="Pack 395  Tap or Click to Get Started"><path d="m58.928 460.01h2.64v9.0933h1.2467v-9.0933h2.64v-1.1733h-6.5267z" style="paint-order:markers stroke fill"/><path d="m65.59 463.91c0.308-0.23467 1.012-0.67467 2.024-0.67467 0.836 0 1.5253 0.264 1.5253 1.188v0.98267c-0.396-0.24933-1.0267-0.49867-1.9213-0.49867-1.6573 0-2.64 0.86534-2.64 2.1707 0 1.3787 1.0853 2.1707 2.332 2.1707 0.82133 0 1.7893-0.33734 2.2293-1.056v0.90933h1.1733v-4.84c0-1.3053-1.0707-2.0533-2.64-2.0533-1.2467 0-2.1413 0.46933-2.6547 0.836zm0.176 3.1093c0-0.73333 0.49867-1.188 1.6427-1.188 0.63067 0 1.188 0.11734 1.7307 0.38134v0.24933c0 1.0707-0.85067 1.7747-1.9213 1.7747-0.86533 0-1.452-0.44-1.452-1.2173z" style="paint-order:markers stroke fill"/><path d="m73.385 472.33v-4.3853c0.49867 0.836 1.3053 1.3053 2.3027 1.3053 1.8333 0 3.344-1.3347 3.344-3.52 0-2.1853-1.5107-3.52-3.344-3.52-0.99733 0-1.804 0.46933-2.3027 1.3053v-1.1587h-1.1733v9.9733zm4.4587-6.6c0 1.5547-1.056 2.42-2.3027 2.42-1.0267 0-2.156-0.86534-2.156-2.42 0-1.5547 1.1293-2.42 2.156-2.42 1.2467 0 2.3027 0.86533 2.3027 2.42z" style="paint-order:markers stroke fill"/><path d="m84.475 465.73c0 2.0387 1.5107 3.52 3.4907 3.52s3.4907-1.4813 3.4907-3.52c0-2.0387-1.5107-3.52-3.4907-3.52s-3.4907 1.4813-3.4907 3.52zm1.188 0c0-1.408 0.98267-2.42 2.3027-2.42s2.3027 1.012 2.3027 2.42-0.98267 2.42-2.3027 2.42-2.3027-1.012-2.3027-2.42z" style="paint-order:markers stroke fill"/><path d="m96.294 463.65 0.64533-0.968c-0.352-0.36667-0.77733-0.46933-1.2613-0.46933-0.51333 0-1.0413 0.352-1.4227 0.924v-0.77734h-1.1733v6.7467h1.1733v-4.1067c0-0.968 0.24933-1.6867 1.1293-1.6867 0.38133 0 0.58667 0.10266 0.90933 0.33733z" style="paint-order:markers stroke fill"/><path d="m103.34 463.97c0-2.3907 1.7893-4.0333 3.8133-4.0333 1.452 0 2.5813 0.616 3.3 1.5253v-1.6427c-0.86533-0.76267-1.804-1.1293-3.3-1.1293-2.8453 0-5.1333 2.2147-5.1333 5.28 0 3.0653 2.288 5.28 5.1333 5.28 1.496 0 2.4347-0.36667 3.3-1.1293v-1.6427c-0.71866 0.90933-1.848 1.5253-3.3 1.5253-2.024 0-3.8133-1.6427-3.8133-4.0333z" style="paint-order:markers stroke fill"/><path d="m112.59 457.66v11.44h1.1733v-11.44z" style="paint-order:markers stroke fill"/><path d="m115.97 459.57c0 0.44 0.36666 0.80666 0.80666 0.80666s0.80667-0.36666 0.80667-0.80666-0.36667-0.80667-0.80667-0.80667-0.80666 0.36667-0.80666 0.80667zm0.22 2.7867v6.7467h1.1733v-6.7467z" style="paint-order:markers stroke fill"/><path d="m120.31 465.73c0-1.408 0.98266-2.42 2.3027-2.42 1.0853 0 2.0387 0.572 2.3467 1.232v-1.4667c-0.46933-0.54267-1.4227-0.86533-2.3467-0.86533-1.98 0-3.4907 1.4813-3.4907 3.52 0 2.0387 1.5107 3.52 3.4907 3.52 0.924 0 1.8773-0.308 2.3467-0.86534v-1.4667c-0.308 0.66-1.2613 1.232-2.3467 1.232-1.32 0-2.3027-1.012-2.3027-2.42z" style="paint-order:markers stroke fill"/><path d="m130.39 462.36-2.4933 2.3613v-7.0547h-1.1733v11.44h1.1733v-3.4173l2.7867 3.4173h1.4667l-3.2267-3.96 2.9333-2.7867z" style="paint-order:markers stroke fill"/><path d="m136.63 462.36v1.1h1.1v5.6467h1.1733v-5.6467h1.1v-1.1h-1.1v-2.3467h-1.1733v2.3467z" style="paint-order:markers stroke fill"/><path d="m140.59 465.73c0 2.0387 1.5107 3.52 3.4907 3.52s3.4907-1.4813 3.4907-3.52c0-2.0387-1.5107-3.52-3.4907-3.52s-3.4907 1.4813-3.4907 3.52zm1.188 0c0-1.408 0.98267-2.42 2.3027-2.42s2.3027 1.012 2.3027 2.42-0.98267 2.42-2.3027 2.42-2.3027-1.012-2.3027-2.42z" style="paint-order:markers stroke fill"/><path d="m74.39 484.09h3.4173c-0.33733 1.5987-1.5253 2.9333-3.564 2.9333-2.1707 0-3.8867-1.6427-3.8867-4.0333 0-2.3907 1.716-4.0333 3.8867-4.0333 1.5693 0 2.7427 0.66 3.388 1.7453l0.88-0.80666c-0.88-1.4227-2.376-2.1853-4.268-2.1853-2.992 0-5.2067 2.2147-5.2067 5.28 0 3.0653 2.2147 5.28 5.2067 5.28 3.1387 0 4.9133-2.508 4.9133-5.3533h-4.7667z" style="paint-order:markers stroke fill"/><path d="m83.533 488.27c1.4373 0 2.508-0.572 3.212-1.716l-0.95333-0.60133c-0.49867 0.82133-1.2027 1.2173-2.112 1.2173-1.2613 0-2.0387-0.76266-2.1413-2.1267h5.3093c0-0.0293 0.01467-0.20534 0.01467-0.352 0-2.1413-1.2027-3.4613-3.1827-3.4613-1.9947 0-3.344 1.4227-3.344 3.52 0 2.0827 1.3053 3.52 3.1973 3.52zm0.14667-6.0133c1.0853 0 1.8187 0.704 1.9067 1.7893h-4.004c0.20533-1.144 0.93867-1.7893 2.0973-1.7893z" style="paint-order:markers stroke fill"/><path d="m87.458 481.38v1.1h1.1v5.6467h1.1733v-5.6467h1.1v-1.1h-1.1v-2.3467h-1.1733v2.3467z" style="paint-order:markers stroke fill"/><path d="m96.874 485.02-0.99733 0.67467c0.66 1.364 1.9947 2.5813 3.6667 2.5813 1.628 0 3.1533-1.144 3.1533-2.9333 0-1.8627-1.496-2.6693-2.596-3.0507-1.804-0.616-2.376-1.2173-2.376-2.0827 0-0.66 0.484-1.3053 1.5987-1.3053 1.2027 0 1.8187 0.82134 2.2147 1.584l1.0707-0.616c-0.51333-1.0707-1.5547-2.156-3.212-2.156-1.7453 0-2.9773 1.1293-2.9773 2.6547 0 1.8627 1.6867 2.5227 2.7133 2.8893 1.1733 0.42534 2.2733 0.85067 2.2733 2.2293 0 0.93866-0.71866 1.6133-1.8187 1.6133-1.232 0-2.024-0.836-2.7133-2.0827z" style="paint-order:markers stroke fill"/><path d="m103.44 481.38v1.1h1.1v5.6467h1.1733v-5.6467h1.1v-1.1h-1.1v-2.3467h-1.1733v2.3467z" style="paint-order:markers stroke fill"/><path d="m108.34 482.93c0.308-0.23467 1.012-0.67467 2.024-0.67467 0.836 0 1.5253 0.264 1.5253 1.188v0.98267c-0.396-0.24934-1.0267-0.49867-1.9213-0.49867-1.6573 0-2.64 0.86533-2.64 2.1707 0 1.3787 1.0853 2.1707 2.332 2.1707 0.82134 0 1.7893-0.33733 2.2293-1.056v0.90934h1.1733v-4.84c0-1.3053-1.0707-2.0533-2.64-2.0533-1.2467 0-2.1413 0.46934-2.6547 0.836zm0.176 3.1093c0-0.73333 0.49867-1.188 1.6427-1.188 0.63067 0 1.188 0.11733 1.7307 0.38133v0.24934c0 1.0707-0.85067 1.7747-1.9213 1.7747-0.86533 0-1.452-0.44-1.452-1.2173z" style="paint-order:markers stroke fill"/><path d="m118.25 482.67 0.64533-0.968c-0.352-0.36667-0.77733-0.46934-1.2613-0.46934-0.51333 0-1.0413 0.352-1.4227 0.924v-0.77733h-1.1733v6.7467h1.1733v-4.1067c0-0.968 0.24934-1.6867 1.1293-1.6867 0.38133 0 0.58666 0.10267 0.90933 0.33734z" style="paint-order:markers stroke fill"/><path d="m119.05 481.38v1.1h1.1v5.6467h1.1733v-5.6467h1.1v-1.1h-1.1v-2.3467h-1.1733v2.3467z" style="paint-order:markers stroke fill"/><path d="m126.21 488.27c1.4373 0 2.508-0.572 3.212-1.716l-0.95334-0.60133c-0.49866 0.82133-1.2027 1.2173-2.112 1.2173-1.2613 0-2.0387-0.76266-2.1413-2.1267h5.3093c0-0.0293 0.0147-0.20534 0.0147-0.352 0-2.1413-1.2027-3.4613-3.1827-3.4613-1.9947 0-3.344 1.4227-3.344 3.52 0 2.0827 1.3053 3.52 3.1973 3.52zm0.14666-6.0133c1.0853 0 1.8187 0.704 1.9067 1.7893h-4.004c0.20533-1.144 0.93867-1.7893 2.0973-1.7893z" style="paint-order:markers stroke fill"/><path d="m130.58 484.75c0 2.1853 1.5107 3.52 3.344 3.52 0.99734 0 1.804-0.46933 2.3027-1.3053v1.1587h1.1733v-11.44h-1.1733v5.852c-0.49867-0.836-1.3053-1.3053-2.3027-1.3053-1.8333 0-3.344 1.3347-3.344 3.52zm1.188 0c0-1.5547 1.056-2.42 2.3027-2.42 1.0267 0 2.156 0.86534 2.156 2.42 0 1.5547-1.1293 2.42-2.156 2.42-1.2467 0-2.3027-0.86533-2.3027-2.42z" style="paint-order:markers stroke fill"/></g><g transform="translate(-41.814 -8.8677)" fill="#f9f9f9" stroke-width=".26458"><path d="m46.49 123.22v0.9853h-0.44907v-2.7172h0.82424q0.46802 0 0.72571 0.21791 0.25769 0.2179 0.25769 0.61391 0 0.39602-0.26906 0.64802-0.26906 0.25201-0.7276 0.25201zm0-1.3605v0.99287h0.2918q0.2899 0 0.44149-0.13453t0.15158-0.37896q0-0.47938-0.55707-0.47938z"/><path d="m49.633 124.21h-0.42633v-0.30317h-0.0076q-0.20085 0.34865-0.58928 0.34865-0.28612 0-0.44907-0.15538-0.16106-0.15537-0.16106-0.41117 0-0.54949 0.63286-0.64044l0.57602-0.0815q0-0.41496-0.39412-0.41496-0.34675 0-0.62528 0.23874v-0.38464q0.30696-0.1819 0.70866-0.1819 0.73518 0 0.73518 0.72381zm-0.42444-0.95308-0.40738 0.0568q-0.18948 0.0246-0.28612 0.0928-0.09474 0.0663-0.09474 0.23495 0 0.12316 0.08716 0.20274 0.08906 0.0777 0.23685 0.0777 0.20085 0 0.33159-0.14022 0.13264-0.14211 0.13264-0.35622z"/><path d="m51.557 124.12q-0.23306 0.13453-0.55139 0.13453-0.43202 0-0.69729-0.26907-0.26527-0.27095-0.26527-0.70107 0-0.47939 0.28422-0.76929 0.28612-0.2918 0.7636-0.2918 0.26527 0 0.46802 0.0928v0.40928q-0.20274-0.15158-0.43202-0.15158-0.27854 0-0.45665 0.18948-0.17811 0.18758-0.17811 0.49265 0 0.30127 0.16674 0.47559 0.16864 0.17432 0.45096 0.17432 0.23685 0 0.44717-0.16864z"/><path d="m53.755 124.21h-0.55707l-0.75413-0.93224h-0.0076v0.93224h-0.44149v-2.8725h0.44149v1.8209h0.0076l0.71245-0.88866h0.52865l-0.8015 0.93604z"/><path d="m55.049 124.11v-0.41307q0.26527 0.21032 0.59876 0.21032 0.27095 0 0.43201-0.12316 0.16295-0.12316 0.16295-0.33348 0-0.46234-0.70676-0.46234h-0.21032v-0.35243h0.20085q0.62718 0 0.62718-0.4358 0-0.4017-0.48886-0.4017-0.27285 0-0.51349 0.19516v-0.39033q0.27664-0.15537 0.65371-0.15537 0.36191 0 0.57981 0.1819 0.2179 0.1819 0.2179 0.46612 0 0.53623-0.5457 0.68971v8e-3q0.2937 0.0284 0.46423 0.20653 0.17053 0.17622 0.17053 0.44149 0 0.3657-0.27475 0.59118-0.27475 0.22359-0.72382 0.22359-0.40359 0-0.64423-0.1459z"/><path d="m58.952 122.7q0 0.40739-0.08906 0.70108-0.08716 0.29369-0.24253 0.48318-0.15348 0.18947-0.36191 0.28042-0.20653 0.0891-0.44528 0.0891-0.07769 0-0.15727-9e-3 -0.07769-9e-3 -0.14969-0.0246-0.07011-0.0152-0.12885-0.0322-0.05684-0.019-0.09474-0.036v-0.39602q0.03979 0.0246 0.09853 0.0512 0.05874 0.0246 0.12695 0.0455 0.07011 0.0189 0.144 0.0322 0.07579 0.0114 0.1459 0.0114 0.16106 0 0.2918-0.0625 0.13264-0.0625 0.22548-0.18569 0.09285-0.12316 0.14211-0.30507 0.05116-0.18379 0.05116-0.42443h-0.0076q-0.0341 0.0606-0.09095 0.11558-0.05495 0.0531-0.12695 0.0947-0.072 0.0398-0.16106 0.0644-0.08716 0.0246-0.18758 0.0246-0.17053 0-0.31833-0.0587-0.14586-0.0606-0.25387-0.17053-0.10801-0.1099-0.17053-0.26717-0.06063-0.15727-0.06063-0.35054 0-0.21222 0.07011-0.38275 0.07011-0.17243 0.19327-0.2918 0.12316-0.12127 0.2899-0.18569 0.16674-0.0663 0.36191-0.0663 0.1838 0 0.34675 0.0701 0.16485 0.0682 0.28801 0.2198 0.12506 0.14969 0.19706 0.38843 0.0739 0.23875 0.0739 0.57792zm-0.45854-0.2899q0-0.13643-0.036-0.24822-0.03411-0.1118-0.09663-0.19138-0.06253-0.0796-0.14969-0.12316-0.08527-0.0436-0.18758-0.0436-0.09095 0-0.17432 0.0379-0.08147 0.036-0.144 0.10421-0.06063 0.0682-0.09663 0.16485-0.036 0.0966-0.036 0.21411 0 0.12885 0.03411 0.22738 0.036 0.0985 0.09853 0.16674 0.06253 0.0663 0.14969 0.10232 0.08905 0.0341 0.19516 0.0341 0.09474 0 0.17432-0.0341 0.08147-0.036 0.14022-0.0947 0.06063-0.0606 0.09474-0.14211 0.03411-0.0815 0.03411-0.17432z"/><path d="m59.43 124.14v-0.42254q0.26716 0.18001 0.54191 0.18001 0.27664 0 0.44528-0.14022 0.16864-0.14211 0.16864-0.37706 0-0.23117-0.17243-0.36002-0.17053-0.12884-0.49075-0.12884-0.1099 0-0.44528 0.0227l0.09664-1.4287h1.3377v0.37517h-0.97204l-0.04548 0.68024q0.13074-8e-3 0.23685-8e-3 0.43201 0 0.66697 0.22169 0.23685 0.22169 0.23685 0.60634 0 0.40359-0.27096 0.64802-0.26906 0.24253-0.74087 0.24253-0.39791 0-0.59307-0.11179z"/></g><rect x="4.1821" y="116.48" width="14.975" height=".43444" fill="#fdd" style="paint-order:fill markers stroke"/></g></svg>
